<?xml version="1.0" standalone="no"?>
<!DOCTYPE svg PUBLIC "-//W3C//DTD SVG 20010904//EN"
 "http://www.w3.org/TR/2001/REC-SVG-20010904/DTD/svg10.dtd">
<svg version="1.0" xmlns="http://www.w3.org/2000/svg"
 width="300.000000pt" height="169.000000pt" viewBox="0 0 300.000000 169.000000"
 preserveAspectRatio="xMidYMid meet">
<metadata>
Created by potrace 1.10, written by Peter Selinger 2001-2011
</metadata>
<g transform="translate(0.000000,169.000000) scale(0.100000,-0.100000)"
fill="#000000" stroke="none">
<path d="M437 1665 c-2 -14 0 -47 6 -73 8 -38 21 -58 76 -112 183 -181 600
-278 1111 -259 l65 2 -75 7 c-41 4 -133 8 -203 9 -74 0 -126 5 -123 10 4 5
-37 11 -91 14 -102 6 -167 14 -193 24 -19 8 -17 7 -65 17 -72 14 -229 68 -284
97 -139 75 -201 147 -201 237 0 54 -14 71 -23 27z"/>
<path d="M2552 1639 c-3 -97 -68 -172 -216 -251 -39 -21 -67 -38 -62 -38 21 0
153 78 197 118 67 60 91 109 86 175 l-3 52 -2 -56z"/>
<path d="M894 1585 c-17 -17 -20 -30 -17 -66 5 -51 26 -79 60 -79 22 0 24 -4
21 -41 -3 -51 19 -71 63 -59 16 5 29 6 29 3 0 -3 7 0 15 7 8 6 19 9 25 5 11
-7 66 -14 100 -14 8 0 60 -1 115 -2 55 0 114 -1 130 -1 17 -1 79 1 138 4 59 2
110 1 113 -3 3 -5 39 -6 82 -3 94 6 82 6 170 1 63 -4 77 -2 93 14 10 10 19 29
19 42 0 13 15 37 34 56 19 18 37 44 40 57 7 28 -16 79 -42 93 -21 11 -590 8
-614 -3 -10 -5 -26 -5 -35 -2 -33 13 -285 17 -299 5 -11 -9 -18 -8 -29 1 -12
10 -21 10 -44 0 -17 -7 -35 -8 -43 -4 -27 18 -102 11 -124 -11z m334 -24 c2
-6 -5 -11 -16 -11 -18 0 -19 -5 -15 -40 5 -33 3 -40 -11 -40 -12 0 -16 10 -16
40 0 29 -4 40 -15 40 -8 0 -15 6 -15 13 0 16 83 14 88 -2z m76 13 c9 -3 16
-13 16 -21 0 -11 -7 -13 -25 -9 -18 5 -27 2 -31 -9 -9 -22 15 -48 31 -35 9 8
15 8 20 0 18 -29 -41 -42 -69 -14 -22 21 -20 50 4 74 21 21 29 23 54 14z m64
-22 c5 -31 32 -28 32 4 0 49 25 19 28 -34 2 -42 0 -52 -12 -52 -9 0 -16 9 -16
20 0 11 -7 20 -15 20 -8 0 -15 -9 -15 -20 0 -11 -7 -20 -15 -20 -12 0 -15 13
-15 56 0 40 4 55 13 52 6 -3 13 -14 15 -26z m242 -2 c0 -18 -5 -30 -13 -30 -8
0 -12 11 -11 28 2 33 2 32 14 32 6 0 10 -13 10 -30z m458 14 c24 -17 30 -62
10 -82 -7 -7 -24 -12 -38 -12 -33 0 -50 17 -50 51 0 24 30 59 50 59 3 0 16 -7
28 -16z m-1113 -11 c6 -17 7 -17 19 0 7 9 21 17 30 17 13 0 16 -10 16 -50 0
-38 -4 -50 -15 -50 -10 0 -15 10 -15 28 -1 25 -2 26 -14 9 -14 -18 -15 -18
-25 0 -9 16 -10 15 -11 -9 0 -18 -5 -28 -15 -28 -11 0 -15 12 -15 50 0 42 3
50 19 50 10 0 22 -8 26 -17z m154 -20 c8 -21 16 -44 18 -50 3 -7 -2 -13 -11
-13 -9 0 -16 5 -16 10 0 6 -9 10 -20 10 -11 0 -20 -4 -20 -10 0 -5 -7 -10 -16
-10 -9 0 -14 6 -11 13 2 6 10 29 18 50 8 22 20 37 29 37 9 0 21 -15 29 -37z
m449 25 c7 -7 12 -24 12 -38 0 -35 -17 -50 -57 -50 -33 0 -33 0 -33 50 0 50 0
50 33 50 18 0 38 -5 45 -12z m97 -38 c0 -38 -4 -50 -15 -50 -12 0 -14 11 -12
50 5 67 27 67 27 0z m60 33 c6 -17 7 -17 19 0 7 9 21 17 30 17 13 0 16 -10 16
-50 0 -38 -4 -50 -15 -50 -10 0 -15 10 -15 27 0 25 -1 26 -14 8 -13 -18 -13
-18 -24 1 -10 17 -11 17 -12 -8 0 -18 -5 -28 -15 -28 -11 0 -15 12 -15 50 0
42 3 50 19 50 10 0 22 -8 26 -17z m160 -3 c8 -25 -10 -50 -36 -50 -11 0 -19
-7 -19 -15 0 -8 -6 -15 -12 -15 -9 0 -13 17 -13 50 l0 50 37 0 c28 0 38 -5 43
-20z m94 2 c6 -11 6 -24 -1 -35 -7 -13 -6 -22 2 -33 10 -11 9 -14 -5 -14 -10
0 -24 8 -31 18 -13 16 -13 16 -14 0 0 -10 -7 -18 -15 -18 -11 0 -15 12 -15 50
l0 50 35 0 c23 0 38 -6 44 -18z m-751 -120 c2 -7 -6 -12 -17 -12 -12 0 -21 -5
-21 -11 0 -6 7 -9 15 -6 8 4 17 2 20 -3 4 -6 -3 -10 -14 -10 -12 0 -21 -5 -21
-11 0 -6 8 -8 19 -4 11 3 22 1 26 -5 4 -6 -6 -10 -24 -10 -28 0 -31 3 -31 30
0 46 36 77 48 42z m414 -24 c10 -23 15 -44 12 -47 -4 -3 -9 0 -11 7 -5 14 -43
16 -43 2 0 -5 -5 -10 -10 -10 -6 0 -2 17 9 39 11 21 17 41 14 45 -4 3 -2 6 3
6 5 0 17 -19 26 -42z m-615 16 c3 -9 1 -26 -6 -36 -7 -11 -8 -17 -2 -14 5 4
12 2 16 -4 4 -6 -6 -10 -24 -10 -36 0 -40 10 -11 28 27 17 26 35 -2 26 -20 -6
-21 -5 -9 10 17 20 30 20 38 0z m143 6 c0 -5 -9 -10 -20 -10 -25 0 -27 -20 -2
-21 16 -1 16 -2 0 -6 -10 -2 -18 -11 -18 -19 0 -8 -4 -14 -10 -14 -11 0 -14
63 -3 73 10 11 53 8 53 -3z m94 -17 l14 -28 11 29 c7 16 14 26 17 23 6 -6 -22
-77 -30 -77 -5 0 -36 66 -36 76 0 12 11 1 24 -23z m102 19 c6 -4 11 -22 11
-40 0 -29 -2 -31 -17 -17 -21 19 -31 19 -24 0 4 -8 1 -15 -5 -15 -12 0 -15 62
-4 73 8 9 25 9 39 -1z m109 -2 c3 -5 -3 -10 -14 -10 -12 0 -21 -5 -21 -11 0
-6 7 -9 15 -5 8 3 15 1 15 -4 0 -6 -7 -10 -15 -10 -8 0 -15 -5 -15 -11 0 -6 7
-9 15 -6 8 4 17 2 20 -3 4 -6 -7 -10 -24 -10 -28 0 -31 3 -31 33 0 19 3 37 7
40 10 10 41 8 48 -3z m65 0 c4 0 8 -16 7 -35 -1 -36 -11 -46 -21 -20 -7 20
-24 19 -29 -2 -3 -10 -5 -2 -6 18 -1 40 6 52 27 44 7 -3 17 -5 22 -5z m207 -5
c3 -9 -2 -24 -12 -34 -16 -18 -15 -20 2 -24 12 -3 9 -5 -9 -6 -31 -1 -36 10
-13 29 8 7 15 17 15 22 0 6 -7 8 -15 4 -15 -5 -20 5 -8 17 12 12 33 7 40 -8z
m63 0 c7 -9 10 -25 6 -41 -5 -19 -12 -25 -29 -22 -25 3 -35 41 -17 64 16 18
24 18 40 -1z m79 -27 c-1 -24 -3 -35 -6 -25 -5 21 -33 23 -33 2 0 -8 -4 -15
-10 -15 -5 0 -10 16 -10 35 0 19 5 35 10 35 6 0 10 -7 10 -15 0 -8 7 -15 15
-15 8 0 15 9 15 20 0 11 2 20 5 20 3 0 4 -19 4 -42z m71 22 c13 -24 -2 -60
-25 -60 -12 0 -35 28 -35 44 0 8 31 36 40 36 5 0 14 -9 20 -20z m74 -3 c14
-22 -4 -52 -30 -52 -14 0 -20 8 -22 29 -5 44 29 59 52 23z m-964 -22 c0 -19
-4 -35 -9 -35 -5 0 -11 16 -13 35 -3 24 0 35 9 35 8 0 13 -13 13 -35z m340 0
c0 -19 -4 -35 -10 -35 -5 0 -10 16 -10 35 0 19 5 35 10 35 6 0 10 -16 10 -35z"/>
<path d="M2020 1535 c-11 -13 -11 -19 3 -33 20 -19 41 -5 35 24 -4 24 -22 28
-38 9z"/>
<path d="M1510 1520 c0 -33 11 -38 30 -15 10 12 10 18 0 30 -19 23 -30 18 -30
-15z"/>
<path d="M1766 1411 c-7 -11 3 -41 14 -41 11 0 21 30 14 41 -3 5 -9 9 -14 9
-5 0 -11 -4 -14 -9z"/>
<path d="M1912 1398 c2 -13 8 -23 13 -23 6 0 11 10 13 23 2 15 -2 22 -13 22
-11 0 -15 -7 -13 -22z"/>
<path d="M1982 1398 c2 -13 8 -23 13 -23 6 0 11 10 13 23 2 15 -2 22 -13 22
-11 0 -15 -7 -13 -22z"/>
<path d="M1541 1148 c-11 -50 -31 -260 -31 -322 0 -27 -2 -28 -36 -22 -64 13
-88 -41 -39 -90 20 -20 28 -23 45 -14 19 10 20 8 20 -32 0 -61 -29 -290 -44
-348 -7 -27 -9 -51 -4 -52 11 -4 -11 -68 -23 -68 -5 0 -9 8 -9 18 -1 15 -2 15
-15 -2 -16 -22 -16 -22 -33 17 -14 33 -15 37 -4 37 5 0 14 -10 20 -22 l11 -23
0 23 c1 27 9 28 27 5 12 -16 13 -16 14 -2 0 26 -27 42 -57 35 -32 -8 -31 -8
-103 -2 -46 3 -59 1 -78 -17 -20 -19 -22 -27 -16 -77 3 -30 11 -60 15 -66 6
-7 34 -10 72 -8 34 1 76 3 92 4 26 1 27 3 10 9 -11 5 -23 7 -27 4 -10 -5 -10
9 0 24 5 7 13 9 21 3 16 -9 43 -2 36 10 -3 5 -1 11 5 15 5 3 10 -1 10 -9 0 -9
9 -16 20 -16 13 0 18 -5 14 -15 -4 -8 -14 -15 -24 -15 -13 0 -21 -13 -29 -48
-7 -26 -14 -55 -18 -66 -12 -40 20 -8 34 34 8 25 18 49 23 53 4 5 104 8 223 7
232 -1 228 -1 233 54 1 17 6 44 10 59 5 21 1 34 -15 51 -20 21 -28 23 -119 19
-53 -2 -104 -4 -112 -4 -44 -1 -170 8 -175 12 -3 4 2 53 10 110 9 57 18 131
21 164 7 87 12 105 30 105 8 0 26 11 39 24 21 21 23 29 15 58 -6 18 -21 41
-35 51 -23 17 -25 24 -25 106 0 48 4 112 9 142 19 109 21 139 12 139 -5 0 -14
-24 -20 -52z m-78 -380 l4 -23 8 23 c4 12 14 22 21 22 12 0 12 -6 -1 -36 -8
-20 -15 -38 -15 -40 0 -2 -4 -4 -10 -4 -5 0 -17 16 -25 36 -18 44 -18 44 -1
44 8 0 17 -10 19 -22z m107 12 c0 -5 -10 -10 -22 -11 l-23 0 23 -10 c30 -12
26 -44 -6 -44 -12 0 -22 5 -21 10 0 6 8 8 17 7 11 -3 9 2 -7 15 -14 11 -21 25
-17 31 9 15 56 16 56 2z m-322 -535 c17 -37 16 -40 -23 -42 l-34 -2 16 35 c20
41 26 42 41 9z m42 0 c0 -14 5 -25 10 -25 6 0 10 11 10 25 0 14 5 25 11 25 6
0 9 -14 7 -32 -2 -28 -7 -33 -28 -33 -21 0 -26 5 -28 33 -2 18 1 32 7 32 6 0
11 -11 11 -25z m218 0 c17 -37 15 -40 -18 -40 -16 0 -30 0 -30 1 0 12 24 64
29 64 4 0 13 -11 19 -25z m67 15 c3 -5 -2 -10 -11 -10 -17 0 -16 -1 1 -13 10
-8 15 -19 11 -25 -9 -15 -46 -16 -46 -1 0 6 7 9 15 5 8 -3 15 -1 15 4 0 6 -7
10 -15 10 -15 0 -21 21 -8 33 10 10 31 8 38 -3z m35 -5 c0 -8 5 -15 10 -15 6
0 10 7 10 15 0 8 5 15 10 15 6 0 10 -16 10 -35 0 -19 -4 -35 -10 -35 -5 0 -10
7 -10 15 0 8 -4 15 -10 15 -5 0 -10 -7 -10 -15 0 -8 -4 -15 -10 -15 -5 0 -10
16 -10 35 0 19 5 35 10 35 6 0 10 -7 10 -15z m127 -22 c3 -30 0 -33 -25 -33
-24 0 -27 3 -25 32 1 18 2 34 2 36 1 2 11 2 23 0 17 -2 23 -11 25 -35z m61 12
c17 -37 15 -40 -18 -40 -16 0 -30 0 -30 1 0 12 24 64 29 64 4 0 13 -11 19 -25z
m77 -12 c1 -35 -4 -40 -23 -21 -9 9 -12 9 -12 0 0 -7 -4 -12 -10 -12 -5 0 -10
16 -10 36 0 33 2 35 28 32 23 -3 27 -8 27 -35z m-625 -83 c0 -12 -8 -17 -25
-17 -17 0 -25 5 -25 17 0 12 8 18 25 18 17 0 25 -6 25 -18z m300 11 c0 -5 12
-7 28 -4 15 3 34 5 42 4 8 -1 34 -2 57 -2 25 0 43 -6 47 -14 4 -11 -16 -14
-100 -13 -96 0 -104 1 -104 19 0 10 7 19 15 19 8 0 15 -4 15 -9z m280 -3 c37
0 50 -4 50 -15 0 -11 -14 -14 -70 -11 -60 2 -70 5 -70 21 0 14 5 17 20 12 10
-3 42 -6 70 -7z m-500 -14 c0 -9 -12 -14 -35 -14 -23 0 -35 5 -35 14 0 9 12
14 35 14 23 0 35 -5 35 -14z"/>
<path d="M817 1165 c-109 -22 -240 -97 -266 -152 -8 -15 -20 -41 -28 -56 -46
-87 -44 -79 -21 -104 14 -15 28 -21 40 -17 17 5 18 -1 16 -73 -4 -159 53 -257
192 -329 47 -24 66 -28 135 -28 64 0 91 5 135 26 172 80 246 299 159 470 -26
52 -94 119 -142 141 -34 16 -38 22 -32 45 7 36 -12 61 -55 71 -19 5 -42 11
-50 14 -8 3 -45 -1 -83 -8z m85 -40 c-3 -20 -3 -20 12 0 11 15 17 17 27 8 23
-23 4 -39 -45 -35 -41 4 -46 7 -46 27 0 20 5 23 28 21 21 -1 26 -6 24 -21z
m-98 4 c12 19 36 12 36 -10 0 -16 -5 -20 -20 -16 -11 3 -20 1 -20 -4 0 -5 -8
-9 -17 -9 -10 0 -31 -7 -47 -15 -28 -15 -56 -7 -56 15 0 15 33 21 42 8 6 -10
8 -8 8 5 0 10 8 17 19 17 11 0 23 5 27 11 5 8 9 8 14 -1 5 -9 9 -9 14 -1z
m182 -21 c-3 -21 -26 -34 -26 -15 0 4 0 14 0 22 0 8 7 15 15 15 10 0 14 -8 11
-22z m-300 -39 c3 -6 1 -16 -5 -22 -9 -9 -14 -8 -21 3 -5 8 -10 18 -10 23 0
11 28 8 36 -4z m-30 -46 c-4 -4 -12 -1 -17 7 -8 11 -8 8 -3 -10 7 -25 7 -25
-15 -6 -26 23 -27 33 -3 39 19 4 50 -19 38 -30z m356 -3 c60 -28 120 -87 150
-148 33 -67 32 -187 -1 -254 -65 -134 -208 -202 -349 -168 -74 17 -165 80
-117 80 8 0 15 -4 15 -10 0 -5 10 -14 21 -21 17 -8 23 -8 29 1 5 7 15 10 24 7
40 -16 136 60 198 156 l30 47 -16 72 c-21 93 -55 208 -62 208 -3 0 -24 -4 -47
-9 -23 -6 -55 -13 -70 -16 -26 -5 -28 -9 -22 -33 4 -15 16 -74 26 -131 l19
-104 -39 -42 c-54 -59 -63 -79 -55 -122 l7 -37 -33 27 c-23 20 -36 25 -45 17
-31 -26 -89 105 -89 205 0 220 229 368 426 275z m-418 -12 c-6 -21 -5 -22 11
-8 16 13 17 12 14 -5 -5 -25 -37 -32 -45 -11 -8 20 2 46 16 46 7 0 9 -8 4 -22z
m-30 -54 c9 -3 16 -13 16 -21 0 -10 -6 -13 -16 -9 -9 3 -18 6 -20 6 -2 0 -4 7
-4 15 0 17 2 18 24 9z m285 -15 c-11 -21 -9 -22 19 -16 16 3 41 9 56 13 16 4
26 2 26 -5 0 -5 -17 -14 -37 -20 -105 -26 -110 -25 -85 20 19 33 39 40 21 8z
m-290 -28 c12 -7 12 -13 3 -24 -7 -7 -8 -17 -4 -21 4 -4 -6 -6 -22 -4 -16 1
-31 9 -34 16 -2 8 2 10 14 5 12 -4 15 -3 10 5 -7 12 0 32 12 32 4 0 13 -4 21
-9z m397 -30 c-7 -10 -96 -32 -124 -30 -9 1 12 9 48 19 81 22 82 22 76 11z
m23 -82 c7 -33 14 -66 17 -73 2 -6 -3 -20 -11 -31 -15 -19 -16 -17 -12 30 5
44 4 47 -8 26 -8 -15 -10 -36 -5 -56 6 -29 2 -39 -33 -83 -40 -50 -42 -51 -59
-32 -10 10 -34 22 -53 26 l-35 6 36 40 c39 43 38 41 18 154 -5 30 -5 30 58 45
35 8 66 14 69 12 4 -1 12 -30 18 -64z m-126 -228 c18 -15 18 -16 -3 -33 -26
-21 -73 -23 -89 -4 -8 9 -8 21 -2 40 9 22 14 25 43 19 18 -3 41 -13 51 -22z"/>
<path d="M1973 1156 c-18 -12 -47 -30 -65 -41 -38 -23 -50 -75 -25 -103 23
-27 26 -56 11 -113 -8 -29 -14 -75 -14 -101 0 -32 -5 -50 -16 -56 -19 -11 -22
-69 -5 -101 12 -21 10 -25 -20 -50 -34 -29 -33 -57 2 -48 11 3 19 1 19 -5 0
-5 10 -2 22 6 32 23 46 20 88 -18 102 -92 294 -106 383 -28 16 14 21 13 56
-22 23 -22 41 -34 45 -27 4 5 -5 18 -19 27 -28 18 -79 83 -54 69 11 -6 12 -5
2 6 -15 16 -17 29 -3 29 5 0 26 -22 47 -50 20 -27 39 -47 42 -45 2 3 -3 13
-11 22 -29 34 -28 51 3 83 18 18 27 35 23 42 -14 23 -14 66 1 108 16 45 18 99
5 140 -5 17 -7 2 -7 -45 -1 -72 -24 -144 -50 -153 -22 -7 -26 28 -8 68 14 31
17 54 12 105 -6 65 -2 95 13 95 5 0 12 -10 16 -22 8 -22 8 -22 13 6 7 36 28
45 33 15 4 -31 32 -47 52 -30 27 23 18 63 -31 136 l-48 70 -5 -61 c-3 -41 -11
-69 -24 -83 -18 -20 -43 -30 -32 -13 3 5 -1 9 -9 9 -17 0 -20 -13 -5 -22 12
-7 -4 -26 -36 -43 -24 -13 -28 -51 -8 -73 8 -9 19 -30 24 -45 8 -29 8 -29 9
-3 1 14 -6 34 -14 45 -20 26 -19 48 4 68 23 21 27 15 36 -46 6 -38 2 -56 -20
-107 -15 -34 -31 -61 -34 -61 -4 0 -5 16 -3 35 2 19 8 33 12 30 5 -3 2 9 -7
26 -8 17 -21 33 -29 36 -8 3 -11 10 -7 16 3 5 1 7 -5 3 -11 -6 -37 14 -44 35
-3 9 -14 8 -42 -2 -32 -12 -38 -11 -46 1 -14 23 -12 3 3 -21 10 -17 9 -23 -1
-26 -6 -3 -10 -8 -7 -13 2 -4 -6 -7 -19 -7 -19 0 -22 4 -18 23 2 13 9 24 16
24 6 0 3 5 -6 11 -27 15 -22 26 15 32 17 3 41 9 51 13 14 5 17 4 12 -5 -6 -8
1 -10 24 -6 17 3 29 2 26 -3 -3 -5 1 -18 9 -28 12 -16 16 -17 27 -5 7 8 8 11
2 8 -12 -7 -42 20 -36 32 1 3 -6 6 -16 7 -10 1 -28 7 -41 13 -12 7 -25 10 -29
7 -3 -3 -1 -6 4 -7 13 0 -123 -45 -147 -48 -4 -1 -10 -8 -13 -17 -4 -12 -2
-15 9 -10 9 3 15 0 15 -10 0 -8 -4 -12 -10 -9 -5 3 -10 4 -10 0 0 -3 12 -10
27 -16 20 -8 30 -6 42 6 12 11 13 17 3 27 -9 9 -12 7 -12 -10 0 -23 -14 -30
-25 -12 -7 12 3 50 14 50 4 0 16 -6 27 -14 16 -12 17 -19 8 -43 l-10 -28 38 3
c21 2 45 -1 53 -8 23 -19 85 -4 85 20 0 11 5 20 11 20 5 0 9 -8 7 -18 -1 -10
4 -29 13 -43 20 -30 11 -58 -27 -88 -31 -25 -40 -26 -75 -7 -23 12 -29 12 -43
-2 -12 -13 -20 -13 -41 -4 -14 6 -25 16 -25 21 0 5 -17 7 -38 4 -43 -6 -67 13
-82 65 -7 27 -5 34 14 49 21 17 24 29 28 124 1 16 11 31 28 41 25 14 27 14 26
-1 -1 -12 10 -17 49 -19 l50 -3 -33 21 c-21 13 -35 31 -39 50 -3 17 -9 30 -14
30 -5 0 -2 -16 6 -36 19 -46 19 -54 0 -54 -8 0 -15 5 -15 11 0 5 5 7 11 3 7
-4 7 1 -1 16 -10 19 -14 20 -28 8 -43 -36 -114 -48 -153 -27 -22 11 -17 31 6
23 19 -8 53 12 60 37 6 17 12 20 37 15 19 -4 47 2 80 16 46 19 56 20 106 10
70 -15 90 -32 65 -54 -17 -15 -22 -15 -70 1 -28 10 -59 23 -67 30 -13 11 -16
11 -16 -2 0 -16 45 -57 63 -57 6 0 19 -8 29 -17 18 -16 21 -14 62 26 30 29 55
45 77 47 18 2 36 10 41 17 4 6 8 8 8 3 0 -5 9 -1 20 9 11 10 17 22 13 27 -3 6
1 14 8 20 11 7 9 8 -6 5 -11 -2 -19 -9 -17 -16 1 -7 -2 -10 -7 -6 -6 3 -19 0
-31 -7 -17 -11 -26 -10 -60 9 -46 25 -55 17 -10 -9 64 -37 26 -49 -67 -22 -39
11 -72 14 -107 9 -94 -12 -147 -14 -142 -6 3 5 -4 11 -17 14 -12 2 -31 8 -41
12 -13 6 -17 5 -13 -2 8 -13 -17 -36 -28 -25 -8 6 -5 -3 11 -43 8 -20 -20 -20
-36 0 -23 28 -3 63 55 96 51 29 72 46 64 53 -2 2 -18 -7 -36 -18z m561 -129
c14 -19 29 -48 32 -65 6 -30 4 -32 -20 -32 -23 0 -26 3 -20 25 4 15 1 32 -7
42 -12 14 -12 16 0 8 10 -5 12 -4 7 3 -4 7 -13 12 -19 12 -7 0 -13 9 -13 20 0
29 11 25 40 -13z m-588 -86 c5 -6 8 -51 6 -101 -3 -70 -7 -93 -19 -97 -8 -3
-19 0 -24 8 -12 20 -11 130 2 168 11 33 19 37 35 22z m80 -23 c-7 -61 -19
-108 -27 -114 -5 -3 -9 -22 -9 -42 l-1 -37 -14 34 c-17 38 -20 108 -6 145 9
21 21 29 53 35 3 0 5 -9 4 -21z m-80 -204 c53 -7 86 -24 45 -24 -35 0 -24 -20
22 -39 65 -28 139 -41 232 -41 85 0 115 5 115 21 0 14 -28 11 -33 -3 -3 -7 -6
-3 -6 10 -1 19 4 22 37 22 20 0 55 3 77 6 l40 5 -35 -18 -35 -18 33 -3 c17 -2
32 -7 32 -12 0 -10 -55 -22 -102 -24 -25 -1 -28 -5 -28 -37 0 -32 -4 -39 -37
-55 -75 -37 -216 -18 -305 41 -34 22 -36 27 -31 63 l5 40 -63 7 c-60 8 -62 9
-31 17 32 8 45 28 18 28 -7 0 -20 8 -27 17 -12 15 -12 16 4 10 10 -4 43 -10
73 -13z m-16 -105 c-14 -25 -55 -52 -86 -55 -13 -1 -24 -1 -24 1 0 2 23 22 52
44 54 41 76 45 58 10z"/>
<path d="M2006 605 c-9 -24 -8 -25 11 -18 12 5 14 3 8 -7 -5 -9 -4 -11 3 -6 7
4 12 1 12 -6 0 -17 61 -40 117 -44 42 -4 64 8 42 22 -8 4 -9 3 -5 -4 4 -7 3
-12 -3 -12 -21 0 -21 21 1 30 20 8 17 9 -14 6 -21 -2 -38 0 -38 5 0 18 -22 9
-27 -11 -3 -11 -10 -20 -15 -20 -6 0 -7 11 -4 24 4 18 1 25 -15 29 -13 4 -19
1 -16 -6 3 -7 9 -11 15 -10 6 2 9 -4 6 -12 -4 -10 -14 -5 -38 21 -28 30 -34
33 -40 19z"/>
<path d="M2300 564 c0 -14 -2 -16 -9 -6 -13 21 -44 10 -46 -15 -1 -13 2 -23 7
-23 7 0 12 15 9 33 0 4 4 7 10 7 6 0 9 -7 5 -15 -3 -9 0 -15 9 -15 14 0 31 37
21 47 -3 4 -6 -2 -6 -13z"/>
<path d="M2044 1135 c-4 -8 -9 -13 -13 -11 -4 3 -7 -4 -8 -14 -2 -27 11 -32
41 -16 26 13 26 14 5 19 -14 4 -20 11 -16 21 4 9 4 16 1 16 -2 0 -7 -7 -10
-15z"/>
<path d="M2325 1000 c-10 -11 -14 -20 -10 -20 4 0 0 -9 -10 -20 -15 -16 -15
-22 -5 -35 7 -8 18 -15 25 -15 15 0 16 30 1 30 -6 0 -3 6 6 13 11 9 14 18 8
27 -5 9 -5 19 2 27 17 21 3 15 -17 -7z"/>
<path d="M2150 770 c0 -13 32 -28 48 -23 25 9 12 33 -18 33 -16 0 -30 -4 -30
-10z"/>
<path d="M2095 760 c19 -7 18 -9 -7 -19 -35 -13 -36 -20 -3 -13 16 3 25 0 25
-9 0 -7 3 -9 7 -6 3 4 17 -3 30 -15 20 -19 26 -20 47 -8 14 7 34 10 45 7 13
-3 19 -1 15 5 -4 6 0 15 7 20 10 7 7 8 -11 3 -26 -7 -37 -7 -80 -1 -14 1 -31
4 -37 4 -7 1 -12 5 -12 10 4 22 -3 32 -23 31 -22 0 -22 -1 -3 -9z"/>
<path d="M359 506 c-86 -30 -133 -92 -133 -177 0 -86 55 -153 147 -181 34 -10
44 -9 69 5 16 9 37 17 47 17 29 0 40 18 27 46 -16 35 -52 32 -59 -5 -8 -36
-33 -46 -86 -31 -118 31 -154 174 -66 260 30 29 43 34 92 37 46 3 65 0 91 -16
70 -44 92 -133 52 -211 -23 -45 -15 -52 19 -16 26 27 37 87 27 141 -17 91
-140 162 -227 131z"/>
<path d="M1870 480 c-11 -11 -20 -29 -20 -39 0 -23 43 -59 79 -67 14 -3 51
-14 81 -24 88 -29 148 -35 299 -27 62 3 77 7 93 26 22 28 22 32 4 57 -13 17
-28 19 -143 20 -70 1 -148 6 -173 12 -25 6 -63 15 -85 20 -22 5 -54 16 -72 25
-40 21 -39 21 -63 -3z m37 -15 c-5 -10 4 -16 28 -21 26 -5 35 -11 35 -26 0
-18 -4 -20 -32 -14 -18 3 -35 11 -39 17 -3 6 -9 10 -13 10 -7 -1 -8 8 0 32 3
9 10 17 16 17 5 0 8 -7 5 -15z m123 -44 c0 -5 10 -12 23 -16 26 -8 27 -8 50 0
11 5 17 2 17 -7 0 -10 15 -13 61 -11 57 2 60 1 57 -20 -2 -16 -9 -21 -23 -19
-11 2 -23 9 -27 15 -5 9 -8 8 -8 -2 0 -17 -69 -8 -82 11 -6 10 -8 10 -8 1 0
-8 -9 -11 -22 -9 -13 3 -27 5 -32 5 -4 1 -6 8 -3 16 5 11 1 12 -20 4 -31 -12
-34 -10 -26 19 5 21 43 33 43 13z m360 -43 c0 -16 -5 -19 -25 -16 -13 3 -26 0
-28 -6 -3 -8 -9 -7 -19 2 -13 10 -19 10 -31 -2 -18 -18 -27 -11 -27 21 0 21 4
23 48 20 26 -1 50 -6 54 -12 4 -6 8 -2 8 8 0 10 5 15 10 12 6 -3 10 -15 10
-27z"/>
<path d="M421 414 c-1 -9 -47 -23 -95 -28 -5 -1 -11 -7 -13 -13 -5 -15 23 -18
32 -4 3 6 14 8 25 6 11 -2 22 1 25 6 4 5 10 7 15 4 13 -8 60 5 60 17 0 6 -9 8
-20 5 -10 -3 -21 0 -24 7 -3 8 -5 8 -5 0z"/>
<path d="M436 363 c-3 -8 -10 -11 -16 -8 -5 3 -10 0 -10 -7 0 -8 -3 -9 -8 -3
-9 13 -32 17 -32 6 0 -4 -11 -7 -25 -6 -29 4 -42 -12 -26 -28 9 -9 14 -9 20 2
5 7 30 14 56 16 26 2 51 9 56 16 6 9 9 10 9 2 0 -6 9 -9 20 -6 11 3 20 11 20
17 0 17 -58 16 -64 -1z"/>
<path d="M478 289 c-6 -4 -15 -6 -19 -3 -4 2 -10 0 -14 -5 -3 -6 -12 -8 -20
-4 -8 3 -15 1 -15 -5 0 -5 -13 -8 -30 -6 -16 2 -30 -1 -30 -6 0 -5 -7 -7 -16
-3 -12 4 -15 2 -12 -8 3 -8 12 -12 19 -10 8 2 30 5 49 6 19 2 34 7 33 12 -1 5
14 8 33 7 19 -2 34 1 34 6 0 5 7 7 15 4 9 -4 15 0 15 8 0 16 -22 19 -42 7z"/>
</g>
</svg>
